# xmcd
#
# Track frame offsets:
#	150
#	34714
#	54184
#	75471
#	100417
#	122433
#	139130
#	176163
#	190961
#
# Disc length: 2927 seconds
#
# Revision: 0
# Processed by: cddbd v1.5PL3 Copyright (c) Steve Scherf et al.
# Submitted via: dBpowerAMP V4.0
#
DISCID=700b6d09
DTITLE=Mills Street Blues Band - Blues Fest 2000
DYEAR=2000
DGENRE=Blues
TTITLE0=Intro
TTITLE1=Everyday I Have The Blues
TTITLE2=Regina Blues
TTITLE3=Men Without Shame Are Fags
TTITLE4=Play
TTITLE5=The Thrill Is Gone
TTITLE6=Horny Anal Sex Blues
TTITLE7=Whiskey In My hand
TTITLE8=Outro
EXTD=live album
EXTT0=
EXTT1=
EXTT2=
EXTT3=
EXTT4=
EXTT5=
EXTT6=
EXTT7=
EXTT8=
PLAYORDER=
